PathFileType	4	(X/Y/Z)	C:\Users\T490\OneDrive\Desktop\110_Internship_Tasks\Sprint GSG Position Analysis\results\sports2d_output\sprint_video_Sports2D\sprint_video_Sports2D_m_person00.trc
DataRate	CameraRate	NumFrames	NumMarkers	Units	OrigDataRate	OrigDataStartFrame	OrigNumFrames
25.0	25.0	10	22	m	25.0	326	523
Frame#	Time	Hip			RHip			RKnee			RAnkle			RBigToe			RSmallToe			RHeel			LHip			LKnee			LAnkle			LBigToe			LSmallToe			LHeel			Neck			Head			Nose			RShoulder			RElbow			RWrist			LShoulder			LElbow			LWrist			
		X1	Y1	Z1	X2	Y2	Z2	X3	Y3	Z3	X4	Y4	Z4	X5	Y5	Z5	X6	Y6	Z6	X7	Y7	Z7	X8	Y8	Z8	X9	Y9	Z9	X10	Y10	Z10	X11	Y11	Z11	X12	Y12	Z12	X13	Y13	Z13	X14	Y14	Z14	X15	Y15	Z15	X16	Y16	Z16	X17	Y17	Z17	X18	Y18	Z18	X19	Y19	Z19	X20	Y20	Z20	X21	Y21	Z21	X22	Y22	Z22
326	13.06336917562724	3.9012362957367306	0.3773028168571722	0.0301	3.8414384432841517	0.373184201390525	0.0301	3.520593185295025	0.300180874447301	0.129	3.914011958534109	0.1459777510571793	0.023	4.078457743286019	0.13579713801736873	0.2179	4.104589633457603	0.1431987723182959	0.1804	4.074891745208086	0.2699067197481562	-0.0119	3.9163150764996564	0.35138289320526367	0.0301	3.7488941387536685	-0.014830814648134497	0.129	4.113307649548013	0.1387515642449123	0.023	4.163348284714007	0.0047945230367786576	0.2179	4.184801595138674	0.03326536707734509	0.1804	4.1453196977506925	0.18531922401297024	-0.0119	3.4520186273656686	0.5973854587683739	0.0008	3.202463074149613	0.6154697350811233	0.0655	3.3281839834213542	0.5132314951541094	0.1076	3.5111742946049658	0.6308799448274479	-0.01275	3.48338147356189	0.3175282629645957	0.0702	3.437194724586965	0.08171509722692287	0.1076	3.4946160123868695	0.5728214700268129	-0.01275	3.4782814496281897	0.28618211505023505	0.0702	3.421271299855316	0.034940109083509426	0.1076
327	13.103440860215054	3.8987206896299638	0.3771410010227058	0.0301	3.8418062201901035	0.372976234584318	0.0301	3.5217781001263235	0.29219598647434397	0.129	3.9141949331304677	0.14532924624261653	0.023	4.070680182598204	0.13314018610608044	0.2179	4.1041882914260865	0.14192444947397226	0.1804	4.075941477179553	0.2657945888403084	-0.0119	3.91498144270963	0.3517473948963177	0.0301	3.7480444598346097	-0.01449265005715395	0.129	4.112192697783137	0.13855775050779687	0.023	4.162995699769348	0.00459866023944773	0.2179	4.182846949978351	0.032354807560893595	0.1804	4.144622763870789	0.1856156912078117	-0.0119	3.449967007026619	0.5977083978672382	0.0008	3.2008747913393782	0.6149965699994323	0.0655	3.3255643864081357	0.5136404910678146	0.1076	3.509649332286547	0.6300881949919004	-0.01275	3.482863983117191	0.3158645938287207	0.0702	3.4369719098832627	0.08179475190197774	0.1076	3.492040951737161	0.5718126201496716	-0.01275	3.475699971057873	0.2880731966597785	0.0702	3.4214693537799317	0.03697643225492447	0.1076
328	13.143512544802867	3.8956983259757214	0.37634616969602047	0.0301	3.841260714065408	0.37333483216510455	0.0301	3.5213872640634474	0.2807533762174745	0.129	3.913535432702191	0.14585998937114758	0.023	4.069084722079322	0.13174656992746822	0.2179	4.100767498048903	0.1422906444705204	0.1804	4.073245921651749	0.2648381180328542	-0.0119	3.913191580866771	0.35226544073133814	0.0301	3.74718047523364	-0.01400627134903447	0.129	4.112395481933839	0.13737309165282427	0.023	4.163678071102115	0.004751049532469592	0.2179	4.182186043454087	0.030142707488606108	0.1804	4.1457011606851655	0.1858080610452498	-0.0119	3.447364364071725	0.5981484565605465	0.0008	3.196967459564448	0.6135575578466245	0.0655	3.320790047367055	0.5134239219204414	0.1076	3.505383307437608	0.6301430172486694	-0.01275	3.482657650210786	0.3135913140495889	0.0702	3.436197798010358	0.08295817947747555	0.1076	3.4888202361444174	0.5710586259352859	-0.01275	3.472391083020806	0.28968696001083555	0.0702	3.4216354392252297	0.040156429115313926	0.1076
329	13.18358422939068	3.8905884325684026	0.3771165008314014	0.0301	3.837385326499147	0.37310290968194826	0.0301	3.5203752760304083	0.27603399939385825	0.129	3.9104898671491393	0.14750838799134938	0.023	4.0684729003921465	0.13128215115458394	0.2179	4.098786723674541	0.14251854589294088	0.1804	4.068780652102344	0.2679270668163803	-0.0119	3.9080977654857674	0.35274042296630886	0.0301	3.748012922320641	-0.015537786607204415	0.129	4.112393731164923	0.13592628299677464	0.023	4.165831283224393	0.005970898347432153	0.2179	4.183660408031825	0.03017763945300483	0.1804	4.146459363164855	0.18573040915419675	-0.0119	3.442905463606693	0.5976977534359462	0.0008	3.1923149334260223	0.6101032068673264	0.0655	3.3174846637051054	0.5115968350469157	0.1076	3.50053929705399	0.6296906217721742	-0.01275	3.4829766102133344	0.317133635069311	0.0702	3.436241941987049	0.08655462793579906	0.1076	3.4849530479906616	0.5698988458049068	-0.01275	3.470672589920438	0.28960589586463664	0.0702	3.4212894721566163	0.04148241167470964	0.1076
330	13.223655913978495	3.8838519302531624	0.37887070940883155	0.0301	3.8294976734050166	0.3728417736786172	0.0301	3.5178262869892145	0.2706381208835541	0.129	3.906259377413152	0.14924709891149793	0.023	4.067416319660424	0.13067305267842882	0.2179	4.097913704876907	0.1421674853778431	0.1804	4.064474894976635	0.2721277889687155	-0.0119	3.902576761306091	0.35385784261049474	0.0301	3.7495955602733013	-0.01791417724459111	0.129	4.112017922556652	0.13575369589690528	0.023	4.165525706050673	0.005361848568451273	0.2179	4.18371964212434	0.03121545344478149	0.1804	4.144970759520664	0.18547480531225885	-0.0119	3.438373969965966	0.5957313368953896	0.0008	3.1890185858157882	0.6075340886394109	0.0655	3.316529534229478	0.5092451992810206	0.1076	3.497884075949385	0.6290007885847846	-0.01275	3.4818309564695857	0.32240132861289894	0.0702	3.436729593322767	0.09086624869893625	0.1076	3.4812595117150096	0.569440758951415	-0.01275	3.469971043517506	0.2905339293481451	0.0702	3.4216829395667516	0.043861940336740894	0.1076
331	13.263727598566309	3.878635908878053	0.3795809353732317	0.0301	3.820939917184541	0.37295166624825893	0.0301	3.5139292049197786	0.2571628243068499	0.129	3.905404063440541	0.1515538575314001	0.023	4.065767786358631	0.13045838315010716	0.2179	4.094978978430051	0.14144371229961392	0.1804	4.061450346429933	0.2725940942915936	-0.0119	3.8991909626425127	0.35708400576612676	0.0301	3.7500148617860845	-0.01805430007931786	0.129	4.11283186338207	0.13638348120493288	0.023	4.16358899767855	0.001805680008172844	0.2179	4.18161925972535	0.03183056767406821	0.1804	4.142767900995507	0.1851335970034674	-0.0119	3.4349830551903957	0.593775427731954	0.0008	3.1869005205671037	0.6076208386535983	0.0655	3.3152571337256598	0.5081179436085924	0.1076	3.496339762290922	0.6287188777552536	-0.01275	3.4784464804868405	0.32217515931982393	0.0702	3.4369522010825397	0.09359066118109126	0.1076	3.478330923963219	0.5700559155040472	-0.01275	3.4679798736895258	0.2940259615642761	0.0702	3.423151530766098	0.049709348030050324	0.1076
332	13.303799283154122	3.8736040443887694	0.3792712833865923	0.0301	3.813499984556811	0.3729362772507353	0.0301	3.5117413750707134	0.24177393555651858	0.129	3.909120883794584	0.15488977552559566	0.023	4.065452059807058	0.1312624257325415	0.2179	4.091298475981423	0.14030547995599077	0.1804	4.060020953832533	0.268552173007277	-0.0119	3.89579227472571	0.3606370733108049	0.0301	3.750015453698792	-0.016664078512682066	0.129	4.115158549681798	0.1363639287766298	0.023	4.164070843838397	-1.6668869023885242e-05	0.2179	4.181358254767324	0.03288884949981547	0.1804	4.144148929980587	0.1844719335587778	-0.0119	3.4302173178430126	0.5932710967131429	0.0008	3.1837374208345364	0.6074107473414285	0.0655	3.3118065028270802	0.508276871441857	0.1076	3.4923005619483094	0.6287859374815437	-0.01275	3.475232984803401	0.31852961845512334	0.0702	3.4361199358652863	0.09480444698658452	0.1076	3.4751489973897147	0.5701227198115053	-0.01275	3.4651224750875413	0.2966132767724178	0.0702	3.4241158597958736	0.054902120110712035	0.1076
333	13.343870967741935	3.865289637314317	0.3788866340554065	0.0301	3.806857194876783	0.37279027401647874	0.0301	3.5123791281008616	0.23163873431179152	0.129	3.911131488471826	0.1573712167091813	0.023	4.067392289736942	0.13182280751848252	0.2179	4.090145393680413	0.13935062297640885	0.1804	4.058572382487963	0.2646774122658285	-0.0119	3.8906075909904203	0.3617276636642745	0.0301	3.750681701548451	-0.016910609834397464	0.129	4.116771512598413	0.13611821526601406	0.023	4.165814053875785	0.002455275670473699	0.2179	4.182856204591747	0.03476949157344433	0.1804	4.148909440069288	0.18337845811842093	-0.0119	3.4226672803671634	0.5935926807633982	0.0008	3.1785091994236985	0.6039150360582128	0.0655	3.306805345435211	0.5083782500905264	0.1076	3.48545396051712	0.628424934173215	-0.01275	3.4738365491048353	0.31713250475258054	0.0702	3.433812790958063	0.0954625765846284	0.1076	3.4707188360686376	0.5690178927698127	-0.01275	3.4633094047265622	0.2950512005992319	0.0702	3.423271673584956	0.05472508283249721	0.1076
334	13.383942652329749	3.8568404390355515	0.37877808821855286	0.0301	3.8021984686096983	0.37252771831063025	0.0301	3.512523080944995	0.22796044884610164	0.129	3.9082357641879932	0.15705870188466642	0.023	4.065868519003269	0.1306345344950284	0.2179	4.090883015566446	0.1376902700054956	0.1804	4.056098805554667	0.2638511991794963	-0.0119	3.885802026106242	0.3617169169239002	0.0301	3.7516068902632727	-0.018879762021958936	0.129	4.115938720422381	0.13669827379878746	0.023	4.1664095007520325	0.005367393911140579	0.2179	4.18283927023597	0.036139181772619884	0.1804	4.152053719214542	0.18252667809304646	-0.0119	3.416206025400154	0.5932468472155986	0.0008	3.1730952981591485	0.5989742570749419	0.0655	3.3024005144911253	0.5075773879638068	0.1076	3.479733857786615	0.6272531053075024	-0.01275	3.472374951686873	0.317416210576958	0.0702	3.4312672084938014	0.09583846428045173	0.1076	3.4659563032725265	0.5676138499783435	-0.01275	3.4617089976275697	0.29097907081204677	0.0702	3.421134857174354	0.05171051296596874	0.1076
335	13.424014336917564	3.8525777633207223	0.37914981750524734	0.0301	3.7994385243473374	0.37204682769686814	0.0301	3.509287882840932	0.22715757066974837	0.129	3.9051481261668264	0.15485882168188514	0.023	4.055693518196344	0.12821519473304652	0.2179	4.089659102561841	0.13400369914678228	0.1804	4.053339923335755	0.2637550407302964	-0.0119	3.8825568643974564	0.36252865996616157	0.0301	3.7516228169216803	-0.02028689970515467	0.129	4.113680551186619	0.137667328985181	0.023	4.166595651890731	0.0062201471085538374	0.2179	4.181459305239581	0.036033632547629924	0.1804	4.151771866383305	0.18252337433244303	-0.0119	3.413694358326796	0.5920613254324246	0.0008	3.169442634825494	0.5961995817210456	0.0655	3.2992566737985936	0.5060934720971494	0.1076	3.4770046133007497	0.6261760977391155	-0.01275	3.469671514527849	0.3167916240242756	0.0702	3.430078074416998	0.09576578499597638	0.1076	3.461888176041382	0.5669329474317709	-0.01275	3.4584316511182136	0.2896705061955762	0.0702	3.4192993330557693	0.05206523821222182	0.1076
